<svg id="svg" version="1.1" xmlns="http://www.w3.org/2000/svg" xmlns:xlink="http://www.w3.org/1999/xlink" width="400" height="400" viewBox="0, 0, 400,400"><g id="svgg"><path id="path0" d="M205.267 42.058 C 203.086 43.138,201.565 45.381,201.310 47.893 C 201.203 48.942,199.887 53.670,198.384 58.400 C 189.542 86.233,186.099 100.951,184.010 119.837 C 183.575 123.777,183.040 128.350,182.821 130.000 C 182.603 131.650,182.419 133.295,182.412 133.656 C 182.406 134.016,182.071 134.718,181.669 135.214 L 180.938 136.117 178.680 134.072 C 175.921 131.574,175.192 131.196,165.732 127.369 C 156.193 123.509,152.491 121.565,147.000 117.528 C 131.654 106.246,120.662 111.334,124.375 128.000 C 127.053 140.019,136.774 162.634,141.345 167.479 C 144.789 171.128,144.744 171.826,141.124 170.882 C 136.306 169.624,131.837 169.967,125.389 172.090 C 112.822 176.228,102.173 178.107,87.400 178.794 C 68.131 179.689,49.895 184.169,45.599 189.062 C 43.349 191.625,44.348 198.066,47.498 201.308 C 55.048 209.079,65.300 212.918,85.614 215.582 C 115.447 219.496,124.303 221.042,133.600 223.959 C 143.434 227.045,143.474 227.088,140.998 232.005 C 140.226 233.536,139.245 236.292,138.816 238.129 C 137.304 244.617,132.938 254.293,129.735 258.258 C 126.338 262.462,124.427 265.693,124.152 267.696 C 122.497 279.771,133.630 284.128,151.888 278.551 C 160.894 275.800,163.962 274.114,169.938 268.629 C 179.445 259.905,181.245 261.455,183.607 280.400 C 184.419 286.911,185.239 290.465,189.154 304.450 C 190.240 308.328,191.793 314.448,192.606 318.050 C 193.418 321.653,195.485 328.920,197.198 334.200 C 198.912 339.480,200.890 346.281,201.595 349.314 C 203.018 355.443,203.778 356.774,206.583 358.048 C 211.661 360.355,216.052 357.307,216.787 350.965 C 217.088 348.371,217.847 346.104,220.995 338.400 C 231.019 313.865,235.898 287.137,233.645 269.100 C 233.335 266.619,233.488 266.371,234.584 267.583 C 234.974 268.013,236.487 268.759,237.946 269.240 C 239.406 269.721,243.750 271.686,247.600 273.606 C 259.964 279.772,262.067 280.314,281.710 282.396 C 286.968 282.953,290.053 281.001,292.617 275.495 C 295.557 269.180,289.074 251.236,279.874 240.227 C 275.583 235.093,273.776 231.113,274.836 229.132 C 275.749 227.427,284.952 224.094,298.400 220.598 C 303.130 219.368,310.856 217.100,315.570 215.557 C 326.422 212.005,333.681 210.652,339.777 211.043 C 347.623 211.547,350.273 210.200,353.249 204.194 C 356.297 198.044,355.950 194.841,352.080 193.388 C 351.046 192.999,348.850 192.010,347.200 191.189 C 333.901 184.569,316.025 178.372,282.727 168.839 C 281.477 168.481,280.352 168.085,280.226 167.959 C 280.100 167.833,281.589 164.416,283.536 160.365 C 288.903 149.193,289.759 146.922,292.172 137.457 C 298.683 111.907,289.859 108.903,247.600 122.283 C 232.878 126.945,233.548 127.005,232.568 120.943 C 230.181 106.174,227.557 95.073,223.786 83.800 C 219.674 71.503,215.335 53.296,215.728 49.980 C 216.471 43.708,210.725 39.357,205.267 42.058 M207.225 79.700 C 207.475 80.635,208.580 83.830,209.680 86.800 C 212.633 94.774,215.348 105.181,216.776 114.000 C 219.824 132.834,220.795 135.627,225.080 137.895 C 231.732 141.417,234.576 141.225,249.689 136.237 C 253.368 135.022,257.868 133.743,259.689 133.394 C 270.427 131.337,270.914 131.197,274.452 129.174 C 280.395 125.775,280.325 125.214,275.952 141.200 C 275.072 144.416,270.136 154.983,266.610 161.200 C 260.521 171.933,262.518 179.607,271.816 181.206 C 279.353 182.502,311.186 192.028,323.000 196.523 L 326.200 197.740 323.000 198.613 C 321.240 199.094,316.200 200.589,311.800 201.935 C 307.400 203.282,301.730 204.849,299.200 205.416 C 285.259 208.543,265.100 215.059,262.615 217.240 C 258.109 221.197,258.300 231.484,263.056 240.968 C 264.441 243.730,265.837 245.765,270.162 251.320 C 273.331 255.391,277.600 264.215,277.600 266.695 C 277.600 266.811,275.305 266.812,272.500 266.697 C 265.095 266.392,262.514 265.508,249.410 258.784 C 231.880 249.788,227.155 248.721,222.684 252.748 C 219.269 255.824,218.200 262.880,219.965 270.696 C 222.714 282.864,218.675 308.645,211.458 325.011 L 210.090 328.113 209.402 325.757 C 209.024 324.460,207.755 319.350,206.582 314.400 C 205.409 309.450,203.019 300.180,201.270 293.800 C 199.520 287.420,197.252 278.600,196.228 274.200 C 191.426 253.566,188.715 247.315,184.500 247.159 C 178.142 246.925,173.229 249.008,165.051 255.406 C 158.800 260.296,157.242 261.160,150.516 263.473 C 142.412 266.259,142.722 266.377,145.331 261.500 C 151.720 249.556,154.630 239.604,155.083 228.153 C 155.490 217.866,152.892 214.810,140.200 210.650 C 131.035 207.646,128.995 207.248,104.200 203.629 C 82.329 200.437,71.477 198.430,68.090 196.952 L 66.600 196.302 68.600 195.760 C 73.394 194.461,82.800 193.188,90.411 192.809 C 107.169 191.974,132.771 186.693,149.121 180.699 C 160.098 176.674,162.208 169.319,154.788 160.949 C 151.743 157.514,148.727 152.132,147.196 147.400 C 146.697 145.860,145.398 142.620,144.309 140.200 C 140.119 130.895,140.072 130.461,143.477 132.516 C 147.633 135.026,173.142 147.200,174.244 147.200 C 174.350 147.200,175.800 147.838,177.465 148.618 C 190.502 154.721,195.299 148.550,197.996 122.200 C 199.394 108.552,201.499 96.868,204.832 84.273 C 205.694 81.013,206.400 78.268,206.400 78.173 C 206.400 77.464,206.848 78.293,207.225 79.700 " stroke="none" fill="#040404" fill-rule="evenodd"></path><path id="path1" d="M206.400 78.173 C 206.400 78.268,205.694 81.013,204.832 84.273 C 201.499 96.868,199.394 108.552,197.996 122.200 C 195.299 148.550,190.502 154.721,177.465 148.618 C 175.800 147.838,174.350 147.200,174.244 147.200 C 173.142 147.200,147.633 135.026,143.477 132.516 C 140.072 130.461,140.119 130.895,144.309 140.200 C 145.398 142.620,146.697 145.860,147.196 147.400 C 148.727 152.132,151.743 157.514,154.788 160.949 C 162.208 169.319,160.098 176.674,149.121 180.699 C 132.771 186.693,107.169 191.974,90.411 192.809 C 82.800 193.188,73.394 194.461,68.600 195.760 L 66.600 196.302 68.090 196.952 C 71.477 198.430,82.329 200.437,104.200 203.629 C 128.995 207.248,131.035 207.646,140.200 210.650 C 152.892 214.810,155.490 217.866,155.083 228.153 C 154.630 239.604,151.720 249.556,145.331 261.500 C 142.722 266.377,142.412 266.259,150.516 263.473 C 157.242 261.160,158.800 260.296,165.051 255.406 C 173.229 249.008,178.142 246.925,184.500 247.159 C 188.715 247.315,191.426 253.566,196.228 274.200 C 197.252 278.600,199.520 287.420,201.270 293.800 C 203.019 300.180,205.409 309.450,206.582 314.400 C 207.755 319.350,209.024 324.460,209.402 325.757 L 210.090 328.113 211.458 325.011 C 218.675 308.645,222.714 282.864,219.965 270.696 C 218.200 262.880,219.269 255.824,222.684 252.748 C 227.155 248.721,231.880 249.788,249.410 258.784 C 262.514 265.508,265.095 266.392,272.500 266.697 C 275.305 266.812,277.600 266.811,277.600 266.695 C 277.600 264.215,273.331 255.391,270.162 251.320 C 265.837 245.765,264.441 243.730,263.056 240.968 C 258.300 231.484,258.109 221.197,262.615 217.240 C 265.100 215.059,285.259 208.543,299.200 205.416 C 301.730 204.849,307.400 203.282,311.800 201.935 C 316.200 200.589,321.240 199.094,323.000 198.613 L 326.200 197.740 323.000 196.523 C 311.186 192.028,279.353 182.502,271.816 181.206 C 262.518 179.607,260.521 171.933,266.610 161.200 C 270.136 154.983,275.072 144.416,275.952 141.200 C 280.325 125.214,280.395 125.775,274.452 129.174 C 270.914 131.197,270.427 131.337,259.689 133.394 C 257.868 133.743,253.368 135.022,249.689 136.237 C 234.576 141.225,231.732 141.417,225.080 137.895 C 220.795 135.627,219.824 132.834,216.776 114.000 C 215.348 105.181,212.633 94.774,209.680 86.800 C 208.580 83.830,207.475 80.635,207.225 79.700 C 206.848 78.293,206.400 77.464,206.400 78.173 " stroke="none" fill="#fbfbfb" fill-rule="evenodd"></path></g></svg>