<svg id="svg" version="1.1" xmlns="http://www.w3.org/2000/svg" xmlns:xlink="http://www.w3.org/1999/xlink" width="400" height="400" viewBox="0, 0, 400,400"><g id="svgg"><path id="path0" d="M209.300 18.713 C 204.013 19.430,198.549 21.256,187.572 25.975 C 181.402 28.627,180.581 29.011,178.202 30.361 C 173.018 33.301,173.422 33.224,162.300 33.400 C 154.094 33.529,152.841 33.592,150.700 33.983 C 147.318 34.600,143.415 34.737,140.998 34.323 C 138.930 33.969,136.686 34.108,135.332 34.674 C 134.728 34.926,134.348 34.916,132.074 34.584 C 123.264 33.300,116.313 34.892,110.388 39.552 C 106.605 42.527,104.021 48.190,102.904 55.953 C 102.143 61.245,100.635 66.229,98.049 72.000 C 94.334 80.289,83.976 110.611,81.788 119.600 C 78.398 133.530,77.946 134.383,69.291 143.196 C 57.438 155.264,52.635 165.861,50.306 185.084 C 48.320 201.465,48.656 207.004,52.294 217.900 C 58.474 236.410,63.951 244.898,74.499 252.316 C 80.995 256.884,84.291 260.372,100.566 279.900 C 111.100 292.539,111.387 292.876,115.707 297.700 C 119.819 302.291,120.715 303.384,124.558 308.498 C 132.153 318.602,133.123 319.689,141.700 327.694 C 148.097 333.665,151.347 337.113,156.599 343.500 C 161.659 349.654,165.726 353.387,174.500 359.931 C 189.901 371.420,195.998 374.045,209.700 375.087 C 221.259 375.966,225.641 376.184,231.925 376.193 C 239.531 376.203,244.746 377.137,250.975 379.603 C 262.363 384.113,270.701 381.831,286.653 369.840 C 292.940 365.115,306.502 351.657,314.004 342.700 C 319.277 336.404,329.550 321.215,334.902 311.800 C 336.247 309.435,338.556 305.700,340.034 303.500 C 345.493 295.375,348.964 287.809,350.350 281.013 C 350.771 278.952,350.811 269.579,350.417 265.338 C 349.612 256.656,347.045 247.961,342.483 238.459 C 337.401 227.874,329.623 201.887,328.099 190.400 C 326.577 178.931,322.684 166.760,315.841 152.073 C 310.753 141.153,307.126 135.538,301.599 130.028 C 298.464 126.901,298.137 126.502,296.201 123.428 C 291.013 115.190,284.268 107.376,278.200 102.572 C 272.590 98.130,271.239 94.645,269.300 79.600 C 267.435 65.129,264.058 52.038,260.375 45.000 C 253.785 32.408,244.103 24.925,229.485 21.125 C 226.743 20.413,223.825 19.641,223.000 19.411 C 219.334 18.386,213.790 18.103,209.300 18.713 M218.499 39.105 C 223.323 39.947,231.768 43.367,234.819 45.715 C 242.329 51.493,247.127 63.172,248.206 78.300 C 248.764 86.132,251.603 99.165,253.695 103.500 C 256.545 109.408,259.021 112.354,269.537 122.349 C 273.786 126.388,274.984 127.817,277.190 131.483 C 279.228 134.870,280.293 136.308,285.202 142.300 C 294.078 153.134,297.156 158.020,300.759 167.000 C 305.147 177.937,306.862 184.301,308.496 195.700 C 309.341 201.602,310.037 204.714,312.415 213.244 C 316.900 229.326,319.077 235.702,323.497 245.700 C 328.640 257.336,329.323 259.511,330.239 267.174 C 331.465 277.439,329.860 283.994,324.355 291.204 C 320.599 296.124,319.772 297.374,317.966 300.870 C 314.457 307.664,305.267 321.624,299.952 328.234 C 292.963 336.927,277.714 351.723,271.700 355.645 C 263.328 361.105,258.765 362.049,253.300 359.451 C 246.695 356.311,242.863 355.810,224.700 355.717 C 201.687 355.599,199.273 354.910,188.100 345.276 C 186.450 343.853,184.065 341.852,182.800 340.829 C 177.548 336.581,174.570 333.650,171.698 329.900 C 168.188 325.317,163.300 320.071,157.900 315.091 C 150.502 308.268,147.898 305.467,143.503 299.600 C 141.897 297.457,141.275 296.681,137.089 291.602 C 128.412 281.074,120.747 272.073,117.671 268.800 C 115.019 265.977,113.425 264.041,109.851 259.300 C 102.210 249.164,96.908 243.640,89.400 237.993 C 81.606 232.130,77.697 227.322,74.692 219.900 C 74.068 218.360,73.109 216.065,72.560 214.800 C 70.011 208.929,69.899 208.363,69.904 201.400 C 69.913 189.165,71.381 180.288,75.199 169.389 C 77.546 162.686,78.605 161.063,82.882 157.614 C 92.546 149.820,95.187 145.381,99.433 129.800 C 101.539 122.073,102.124 120.193,105.106 111.583 C 106.485 107.602,108.423 101.638,109.415 98.329 C 111.114 92.657,112.212 89.545,115.585 80.843 C 117.633 75.558,118.471 72.926,119.292 69.200 C 121.245 60.339,122.372 58.201,126.113 56.260 C 129.016 54.753,133.882 53.740,135.530 54.300 C 137.554 54.987,143.032 55.031,149.600 54.411 C 150.755 54.303,153.770 54.210,156.300 54.206 C 162.772 54.195,174.617 53.227,178.457 52.395 C 181.275 51.785,185.483 49.913,194.173 45.405 C 203.282 40.678,213.036 38.153,218.499 39.105 M126.000 104.929 C 121.033 105.382,118.194 106.657,113.968 110.331 C 109.670 114.067,107.340 117.513,104.272 124.668 C 103.199 127.170,103.569 133.891,105.026 138.353 C 105.949 141.183,109.792 143.808,116.994 146.527 C 123.846 149.114,132.865 147.032,138.175 141.637 C 140.814 138.956,144.799 132.244,144.800 130.481 C 144.800 130.116,144.964 129.713,145.200 129.500 C 145.555 129.178,145.600 128.884,145.600 126.863 C 145.600 124.835,145.658 124.453,146.138 123.344 C 147.084 121.156,146.995 116.006,145.963 113.248 C 145.452 111.881,144.088 110.498,141.693 108.916 C 140.707 108.265,139.476 107.354,138.957 106.892 C 138.220 106.235,137.807 106.027,137.057 105.934 C 136.531 105.869,135.425 105.623,134.600 105.389 C 133.106 104.963,128.388 104.712,126.000 104.929 M203.300 114.901 C 203.190 114.940,202.602 115.109,201.993 115.278 C 199.964 115.842,196.284 118.491,193.088 121.687 C 187.228 127.548,186.077 129.249,180.061 140.949 L 177.554 145.823 177.655 151.162 C 177.889 163.605,182.173 170.655,192.600 175.758 C 194.525 176.700,197.290 178.176,198.744 179.039 C 206.177 183.449,210.116 184.709,216.400 184.686 C 234.450 184.622,245.080 172.206,243.403 153.148 C 243.054 149.179,242.239 147.066,239.363 142.675 C 234.115 134.665,230.210 130.502,222.875 125.095 C 215.289 119.504,212.996 118.051,212.170 118.310 C 211.954 118.378,211.465 118.039,210.755 117.329 C 208.862 115.436,205.194 114.242,203.300 114.901 M170.200 182.811 C 155.234 185.062,151.663 185.937,150.187 187.716 C 149.733 188.263,147.575 189.236,145.703 189.736 C 143.403 190.352,137.964 193.014,136.106 194.435 C 132.370 197.290,130.578 202.126,129.525 212.200 L 129.243 214.900 129.753 215.800 C 133.706 222.775,136.991 225.841,143.571 228.697 C 152.487 232.567,157.563 232.926,176.328 231.012 C 180.634 230.573,185.854 230.120,187.928 230.006 C 193.628 229.693,195.389 229.503,201.700 228.522 C 204.890 228.026,209.660 227.347,212.300 227.013 C 217.062 226.410,222.787 225.588,227.609 224.815 C 228.990 224.593,231.886 224.008,234.047 223.515 C 238.285 222.546,240.071 222.269,247.000 221.501 C 258.981 220.174,268.447 218.807,276.756 217.205 C 279.646 216.648,283.533 215.973,285.394 215.707 C 293.710 214.514,302.290 209.693,303.591 205.481 C 305.260 200.079,302.928 194.800,297.579 191.871 C 291.385 188.480,285.469 187.703,274.820 188.883 C 272.246 189.168,268.106 189.535,265.620 189.698 C 263.134 189.862,260.560 190.037,259.900 190.089 C 256.714 190.336,231.978 190.589,230.054 190.394 C 228.929 190.280,226.039 189.746,223.632 189.207 C 221.226 188.668,217.961 188.046,216.378 187.824 C 214.795 187.602,212.105 187.229,210.400 186.995 C 208.695 186.761,205.725 186.212,203.800 185.776 C 193.648 183.474,183.969 182.385,179.020 182.987 C 177.469 183.176,177.186 183.156,176.244 182.798 C 174.947 182.305,173.545 182.308,170.200 182.811 " stroke="none" fill="#040404" fill-rule="evenodd"></path><path id="path1" d="M213.200 38.944 C 208.652 39.467,199.872 42.448,194.173 45.405 C 185.483 49.913,181.275 51.785,178.457 52.395 C 174.617 53.227,162.772 54.195,156.300 54.206 C 153.770 54.210,150.755 54.303,149.600 54.411 C 143.032 55.031,137.554 54.987,135.530 54.300 C 133.882 53.740,129.016 54.753,126.113 56.260 C 122.372 58.201,121.245 60.339,119.292 69.200 C 118.471 72.926,117.633 75.558,115.585 80.843 C 112.212 89.545,111.114 92.657,109.415 98.329 C 108.423 101.638,106.485 107.602,105.106 111.583 C 102.124 120.193,101.539 122.073,99.433 129.800 C 95.187 145.381,92.546 149.820,82.882 157.614 C 78.605 161.063,77.546 162.686,75.199 169.389 C 71.381 180.288,69.913 189.165,69.904 201.400 C 69.899 208.363,70.011 208.929,72.560 214.800 C 73.109 216.065,74.068 218.360,74.692 219.900 C 77.697 227.322,81.606 232.130,89.400 237.993 C 96.908 243.640,102.210 249.164,109.851 259.300 C 113.425 264.041,115.019 265.977,117.671 268.800 C 120.747 272.073,128.412 281.074,137.089 291.602 C 141.275 296.681,141.897 297.457,143.503 299.600 C 147.898 305.467,150.502 308.268,157.900 315.091 C 163.300 320.071,168.188 325.317,171.698 329.900 C 174.570 333.650,177.548 336.581,182.800 340.829 C 184.065 341.852,186.450 343.853,188.100 345.276 C 199.273 354.910,201.687 355.599,224.700 355.717 C 242.863 355.810,246.695 356.311,253.300 359.451 C 258.765 362.049,263.328 361.105,271.700 355.645 C 277.714 351.723,292.963 336.927,299.952 328.234 C 305.267 321.624,314.457 307.664,317.966 300.870 C 319.772 297.374,320.599 296.124,324.355 291.204 C 329.860 283.994,331.465 277.439,330.239 267.174 C 329.323 259.511,328.640 257.336,323.497 245.700 C 319.077 235.702,316.900 229.326,312.415 213.244 C 310.037 204.714,309.341 201.602,308.496 195.700 C 306.862 184.301,305.147 177.937,300.759 167.000 C 297.156 158.020,294.078 153.134,285.202 142.300 C 280.293 136.308,279.228 134.870,277.190 131.483 C 274.984 127.817,273.786 126.388,269.537 122.349 C 259.021 112.354,256.545 109.408,253.695 103.500 C 251.603 99.165,248.764 86.132,248.206 78.300 C 247.267 65.134,243.238 53.852,237.388 48.002 C 232.024 42.638,220.057 38.157,213.200 38.944 M134.600 105.389 C 135.425 105.623,136.531 105.869,137.057 105.934 C 137.807 106.027,138.220 106.235,138.957 106.892 C 139.476 107.354,140.707 108.265,141.693 108.916 C 144.088 110.498,145.452 111.881,145.963 113.248 C 146.995 116.006,147.084 121.156,146.138 123.344 C 145.658 124.453,145.600 124.835,145.600 126.863 C 145.600 128.884,145.555 129.178,145.200 129.500 C 144.964 129.713,144.800 130.116,144.800 130.481 C 144.799 132.244,140.814 138.956,138.175 141.637 C 132.865 147.032,123.846 149.114,116.994 146.527 C 109.792 143.808,105.949 141.183,105.026 138.353 C 103.569 133.891,103.199 127.170,104.272 124.668 C 107.933 116.131,111.555 111.477,117.603 107.544 C 121.468 105.030,129.680 103.989,134.600 105.389 M206.864 115.099 C 208.535 115.534,209.531 116.105,210.755 117.329 C 211.465 118.039,211.954 118.378,212.170 118.310 C 213.876 117.774,228.216 128.595,232.696 133.800 C 239.796 142.049,242.924 147.701,243.403 153.148 C 244.853 169.622,237.229 181.104,222.827 184.140 C 214.608 185.872,207.848 184.440,198.744 179.039 C 197.290 178.176,194.525 176.700,192.600 175.758 C 184.524 171.806,180.312 166.677,178.182 158.200 C 177.817 156.746,177.741 155.726,177.655 151.162 L 177.554 145.823 180.061 140.949 C 186.077 129.249,187.228 127.548,193.088 121.687 C 196.284 118.491,199.964 115.842,201.993 115.278 C 202.602 115.109,203.190 114.940,203.300 114.901 C 203.823 114.719,205.834 114.831,206.864 115.099 M176.244 182.798 C 177.186 183.156,177.469 183.176,179.020 182.987 C 183.969 182.385,193.648 183.474,203.800 185.776 C 205.725 186.212,208.695 186.761,210.400 186.995 C 212.105 187.229,214.795 187.602,216.378 187.824 C 217.961 188.046,221.226 188.668,223.632 189.207 C 226.039 189.746,228.929 190.280,230.054 190.394 C 231.978 190.589,256.714 190.336,259.900 190.089 C 260.560 190.037,263.134 189.862,265.620 189.698 C 268.106 189.535,272.246 189.168,274.820 188.883 C 285.469 187.703,291.385 188.480,297.579 191.871 C 302.928 194.800,305.260 200.079,303.591 205.481 C 302.290 209.693,293.710 214.514,285.394 215.707 C 283.533 215.973,279.646 216.648,276.756 217.205 C 268.447 218.807,258.981 220.174,247.000 221.501 C 240.071 222.269,238.285 222.546,234.047 223.515 C 231.886 224.008,228.990 224.593,227.609 224.815 C 222.787 225.588,217.062 226.410,212.300 227.013 C 209.660 227.347,204.890 228.026,201.700 228.522 C 195.389 229.503,193.628 229.693,187.928 230.006 C 185.854 230.120,180.634 230.573,176.328 231.012 C 157.563 232.926,152.487 232.567,143.571 228.697 C 136.991 225.841,133.706 222.775,129.753 215.800 L 129.243 214.900 129.525 212.200 C 130.578 202.126,132.370 197.290,136.106 194.435 C 137.964 193.014,143.403 190.352,145.703 189.736 C 147.575 189.236,149.733 188.263,150.187 187.716 C 151.509 186.123,154.401 185.311,164.500 183.698 C 173.632 182.240,174.583 182.167,176.244 182.798 " stroke="none" fill="#fbfbfb" fill-rule="evenodd"></path></g></svg>