<svg id="svg" version="1.1" xmlns="http://www.w3.org/2000/svg" xmlns:xlink="http://www.w3.org/1999/xlink" width="400" height="400" viewBox="0, 0, 400,400"><g id="svgg"><path id="path0" d="M177.400 57.015 C 160.603 58.067,146.657 63.773,132.800 75.265 C 131.865 76.041,117.778 89.979,101.496 106.238 L 71.892 135.801 71.160 135.198 C 67.616 132.276,63.160 131.574,59.400 133.344 C 57.267 134.347,47.106 144.439,45.951 146.700 C 43.999 150.521,44.080 154.133,46.189 157.338 C 47.847 159.857,81.066 192.616,82.925 193.565 C 86.724 195.504,90.327 195.405,93.600 193.272 C 95.203 192.227,104.540 182.776,105.372 181.356 C 108.201 176.525,107.818 172.388,104.149 168.144 C 102.960 166.768,102.841 167.016,105.900 164.508 C 113.339 158.409,120.393 156.571,126.644 159.100 C 127.865 159.594,130.009 161.716,204.200 235.881 C 284.457 316.109,281.343 313.061,284.900 314.848 C 306.262 325.577,326.476 302.072,313.149 282.000 C 312.357 280.808,296.489 264.827,235.796 204.100 L 159.439 127.700 158.929 125.500 C 155.121 109.069,158.941 95.515,170.318 85.083 C 182.021 74.354,187.624 72.184,204.600 71.806 C 213.365 71.611,214.762 71.388,216.369 69.927 C 217.548 68.855,217.667 67.787,216.798 66.082 C 215.905 64.331,215.573 64.029,213.592 63.175 C 203.219 58.703,189.025 56.287,177.400 57.015 " stroke="none" fill="#fcfcfc" fill-rule="evenodd"></path><path id="path1" d="M167.389 87.950 L 166.700 88.700 167.450 88.011 C 168.148 87.369,168.292 87.200,168.139 87.200 C 168.106 87.200,167.768 87.538,167.389 87.950 M235.300 203.600 C 276.990 245.290,311.145 279.400,311.200 279.400 C 311.255 279.400,277.190 245.290,235.500 203.600 C 193.810 161.910,159.655 127.800,159.600 127.800 C 159.545 127.800,193.610 161.910,235.300 203.600 M51.798 139.950 L 47.500 144.300 51.850 140.002 C 54.242 137.638,56.200 135.680,56.200 135.652 C 56.200 135.510,55.792 135.908,51.798 139.950 M203.500 235.400 C 245.190 277.090,279.345 311.200,279.400 311.200 C 279.455 311.200,245.390 277.090,203.700 235.400 C 162.010 193.710,127.855 159.600,127.800 159.600 C 127.745 159.600,161.810 193.710,203.500 235.400 " stroke="none" fill="#e4e4e4" fill-rule="evenodd"></path></g></svg>